<?xml version="1.0" encoding="UTF-8" standalone="no"?>
<!-- Generator: Adobe Illustrator 15.0.2, SVG Export Plug-In . SVG Version: 6.00 Build 0)  -->

<svg
   xmlns:dc="http://purl.org/dc/elements/1.1/"
   xmlns:cc="http://creativecommons.org/ns#"
   xmlns:rdf="http://www.w3.org/1999/02/22-rdf-syntax-ns#"
   xmlns:svg="http://www.w3.org/2000/svg"
   xmlns="http://www.w3.org/2000/svg"
   xmlns:sodipodi="http://sodipodi.sourceforge.net/DTD/sodipodi-0.dtd"
   xmlns:inkscape="http://www.inkscape.org/namespaces/inkscape"
   version="1.1"
   id="Layer_1"
   x="0px"
   y="0px"
   width="249.235px"
   height="249.236px"
   viewBox="0 0 249.235 249.236"
   enable-background="new 0 0 249.235 249.236"
   xml:space="preserve"
   sodipodi:docname="disease_iconsvg.svg"
   inkscape:version="0.92.2 5c3e80d, 2017-08-06"><metadata
     id="metadata13"><rdf:RDF><cc:Work
         rdf:about=""><dc:format>image/svg+xml</dc:format><dc:type
           rdf:resource="http://purl.org/dc/dcmitype/StillImage" /><dc:title></dc:title></cc:Work></rdf:RDF></metadata><defs
     id="defs11" /><sodipodi:namedview
     pagecolor="#ffffff"
     bordercolor="#666666"
     borderopacity="1"
     objecttolerance="10"
     gridtolerance="10"
     guidetolerance="10"
     inkscape:pageopacity="0"
     inkscape:pageshadow="2"
     inkscape:window-width="1407"
     inkscape:window-height="856"
     id="namedview9"
     showgrid="false"
     inkscape:zoom="0.94689374"
     inkscape:cx="124.6175"
     inkscape:cy="124.618"
     inkscape:window-x="35"
     inkscape:window-y="0"
     inkscape:window-maximized="0"
     inkscape:current-layer="Layer_1" /><g
     id="g6"
     style="fill:#000000;fill-opacity:1"><path
       fill="#FBFBFB"
       d="M218.992,107.11c0,5.717-0.942,11.357-2.758,16.78c-8.54,38.642-82.396,85.388-85.537,87.38   c-0.981,0.609-2.081,0.93-3.203,0.93c-1.12,0-2.241-0.288-3.223-0.93c-0.842-0.552-21.649-13.682-42.746-31.729   c-2.525-2.181-2.791-5.937-0.671-8.451c2.171-2.493,5.922-2.8,8.453-0.676c15.726,13.433,31.619,24.296,38.216,28.67   c22.177-14.457,71.146-51.25,77.146-78.386c1.569-4.791,2.275-9.15,2.275-13.576c0-15.404-8.384-29.605-21.89-37.045   c-17.244-9.567-40.329-5.155-52.948,10.053c-2.267,2.749-6.933,2.749-9.242,0C110.21,64.911,87.143,60.533,69.92,70.062   c-13.547,7.456-21.934,21.648-21.934,37.038c0,4.395,0.743,8.774,2.131,13.002c0.888,3.955,2.591,7.826,4.756,11.842h34.985   l12.015-27.612c1.029-2.363,3.485-3.85,6.014-3.585c2.576,0.225,4.724,2.077,5.298,4.593l8.844,37.392l11.437-18.761   c1.08-1.779,3.021-2.871,5.119-2.871h21.71c3.304,0,5.991,2.676,5.991,5.996c0,3.304-2.688,5.994-5.991,5.994h-18.348   l-17.237,28.31c-1.099,1.807-3.038,2.881-5.096,2.881c-0.327,0-0.644-0.024-0.936-0.07c-2.415-0.387-4.317-2.167-4.897-4.526   l-8.083-34.061l-6.386,14.698c-0.955,2.209-3.117,3.605-5.503,3.605H23.912c-3.28,0-5.993-2.685-5.993-5.992   c0-3.304,2.713-5.993,5.993-5.993h17.576c-1.246-2.975-2.254-5.864-2.878-8.656c-1.673-4.852-2.579-10.5-2.579-16.188   c0-19.768,10.752-37.968,28.122-47.538c20.118-11.127,46.74-7.629,63.367,7.993c16.579-15.625,43.183-19.121,63.335-7.993   C208.202,69.116,218.992,87.329,218.992,107.11z"
       id="path4"
       style="fill:#000000;fill-opacity:1" /></g></svg>