<?xml version="1.0" encoding="UTF-8" standalone="no"?>
<!-- Generator: Adobe Illustrator 15.0.2, SVG Export Plug-In . SVG Version: 6.00 Build 0)  -->

<svg
   xmlns:dc="http://purl.org/dc/elements/1.1/"
   xmlns:cc="http://creativecommons.org/ns#"
   xmlns:rdf="http://www.w3.org/1999/02/22-rdf-syntax-ns#"
   xmlns:svg="http://www.w3.org/2000/svg"
   xmlns="http://www.w3.org/2000/svg"
   xmlns:sodipodi="http://sodipodi.sourceforge.net/DTD/sodipodi-0.dtd"
   xmlns:inkscape="http://www.inkscape.org/namespaces/inkscape"
   version="1.1"
   id="Layer_1"
   x="0px"
   y="0px"
   width="249.235px"
   height="249.236px"
   viewBox="0 0 249.235 249.236"
   enable-background="new 0 0 249.235 249.236"
   xml:space="preserve"
   sodipodi:docname="gene_icon.svg"
   inkscape:version="0.92.2 5c3e80d, 2017-08-06"><metadata
     id="metadata15"><rdf:RDF><cc:Work
         rdf:about=""><dc:format>image/svg+xml</dc:format><dc:type
           rdf:resource="http://purl.org/dc/dcmitype/StillImage" /><dc:title></dc:title></cc:Work></rdf:RDF></metadata><defs
     id="defs13" /><sodipodi:namedview
     pagecolor="#ffffff"
     bordercolor="#666666"
     borderopacity="1"
     objecttolerance="10"
     gridtolerance="10"
     guidetolerance="10"
     inkscape:pageopacity="0"
     inkscape:pageshadow="2"
     inkscape:window-width="1338"
     inkscape:window-height="733"
     id="namedview11"
     showgrid="false"
     inkscape:zoom="0.94689374"
     inkscape:cx="124.6175"
     inkscape:cy="124.618"
     inkscape:window-x="84"
     inkscape:window-y="2"
     inkscape:window-maximized="0"
     inkscape:current-layer="Layer_1" /><g
     id="g8"
     style="fill:#000000;fill-opacity:1"><g
       id="g6"
       style="fill:#000000;fill-opacity:1"><path
         fill="#FBFBFB"
         d="M225.152,75.065c-3.728-0.833-7.708,1.725-8.484,5.199c-0.215,0.822-0.999,3.516-2.876,7.141    l-50.279-50.278c4.129-2.104,7.016-2.772,7.093-2.794c9.184-2.154,5.908-16.03-3.288-13.856    c-0.569,0.139-56.324,14.694-47.164,94.28c-3.66-0.238-7.308-0.354-10.889-0.354c-65.006,0-89.88,40.855-90.901,42.576    c-4.863,8.197,7.451,15.096,12.216,7.308c0.377-0.617,2.328-3.688,6.251-7.834l57.684,57.703c-4.11,3.887-7.188,5.852-7.771,6.21    c-8.091,4.817-0.865,16.968,7.238,12.262c1.938-1.16,47.149-28.911,42.225-101.825c58.297,6.768,88.396-22.838,94.303-47.221    C231.396,79.714,228.927,75.867,225.152,75.065z M120.934,160.636l-30.597-30.604c9.763-1.479,20.64-1.773,31.471-0.875    C122.728,140.157,122.432,150.732,120.934,160.636z M73.34,133.811l43.617,43.869c-4.367,12.93-9.668,21.614-13.399,25.965    L47.38,147.272C57.089,139.391,69.678,135.454,73.34,133.811z M133.772,87.187l29.859,29.969    c-8.795,0.841-18.641,0.546-28.954-0.842C133.256,105.822,132.948,96.031,133.772,87.187z M180.827,113.731l-43.813-43.453    c3.19-10.314,7.773-17.477,13.882-23.919l53.915,53.127l-0.573,0.712C195.658,108.506,184.487,113.111,180.827,113.731z"
         id="path4"
         style="fill:#000000;fill-opacity:1" /></g></g></svg>