<?xml version="1.0" encoding="UTF-8" standalone="no"?>
<!-- Generator: Adobe Illustrator 15.0.2, SVG Export Plug-In . SVG Version: 6.00 Build 0)  -->

<svg
   xmlns:dc="http://purl.org/dc/elements/1.1/"
   xmlns:cc="http://creativecommons.org/ns#"
   xmlns:rdf="http://www.w3.org/1999/02/22-rdf-syntax-ns#"
   xmlns:svg="http://www.w3.org/2000/svg"
   xmlns="http://www.w3.org/2000/svg"
   xmlns:sodipodi="http://sodipodi.sourceforge.net/DTD/sodipodi-0.dtd"
   xmlns:inkscape="http://www.inkscape.org/namespaces/inkscape"
   version="1.1"
   id="Layer_1"
   x="0px"
   y="0px"
   width="249.235px"
   height="249.236px"
   viewBox="0 0 249.235 249.236"
   enable-background="new 0 0 249.235 249.236"
   xml:space="preserve"
   sodipodi:docname="pill_icon.svg"
   inkscape:version="0.92.2 5c3e80d, 2017-08-06"><metadata
     id="metadata13"><rdf:RDF><cc:Work
         rdf:about=""><dc:format>image/svg+xml</dc:format><dc:type
           rdf:resource="http://purl.org/dc/dcmitype/StillImage" /><dc:title></dc:title></cc:Work></rdf:RDF></metadata><defs
     id="defs11" /><sodipodi:namedview
     pagecolor="#ffffff"
     bordercolor="#666666"
     borderopacity="1"
     objecttolerance="10"
     gridtolerance="10"
     guidetolerance="10"
     inkscape:pageopacity="0"
     inkscape:pageshadow="2"
     inkscape:window-width="778"
     inkscape:window-height="480"
     id="namedview9"
     showgrid="false"
     inkscape:zoom="1.33911"
     inkscape:cx="100.8"
     inkscape:cy="128.94848"
     inkscape:window-x="223"
     inkscape:window-y="74"
     inkscape:window-maximized="0"
     inkscape:current-layer="Layer_1" /><g
     id="g6"
     style="fill:#808080;fill-opacity:1"><path
       fill="#FBFBFB"
       d="M195.512,54.294c-8.142-8.143-18.815-12.226-29.494-12.226c-10.674,0-21.351,4.083-29.47,12.226   L94.396,96.438l0,0l-42.142,42.135c-16.287,16.267-16.287,42.68,0.01,58.965c16.266,16.278,42.682,16.278,58.956,0l33.163-33.15   l51.119-51.119C211.776,96.974,211.776,70.559,195.512,54.294z M186.532,104.283l-42.148,42.14L103.365,105.4l42.142-42.14   c5.473-5.474,12.765-8.507,20.492-8.507c7.751,0,15.042,3.033,20.518,8.507C197.838,74.564,197.838,92.983,186.532,104.283z"
       id="path4"
       style="fill:#808080;fill-opacity:1" /></g></svg>