<?xml version="1.0" encoding="UTF-8" standalone="no"?>
<!-- Generator: Adobe Illustrator 15.0.2, SVG Export Plug-In . SVG Version: 6.00 Build 0)  -->

<svg
   xmlns:dc="http://purl.org/dc/elements/1.1/"
   xmlns:cc="http://creativecommons.org/ns#"
   xmlns:rdf="http://www.w3.org/1999/02/22-rdf-syntax-ns#"
   xmlns:svg="http://www.w3.org/2000/svg"
   xmlns="http://www.w3.org/2000/svg"
   xmlns:sodipodi="http://sodipodi.sourceforge.net/DTD/sodipodi-0.dtd"
   xmlns:inkscape="http://www.inkscape.org/namespaces/inkscape"
   version="1.1"
   id="Layer_1"
   x="0px"
   y="0px"
   width="249.235px"
   height="249.236px"
   viewBox="0 0 249.235 249.236"
   enable-background="new 0 0 249.235 249.236"
   xml:space="preserve"
   sodipodi:docname="variant_icon.svg"
   inkscape:version="0.92.2 5c3e80d, 2017-08-06"><metadata
     id="metadata21"><rdf:RDF><cc:Work
         rdf:about=""><dc:format>image/svg+xml</dc:format><dc:type
           rdf:resource="http://purl.org/dc/dcmitype/StillImage" /><dc:title /></cc:Work></rdf:RDF></metadata><defs
     id="defs19" /><sodipodi:namedview
     pagecolor="#ffffff"
     bordercolor="#666666"
     borderopacity="1"
     objecttolerance="10"
     gridtolerance="10"
     guidetolerance="10"
     inkscape:pageopacity="0"
     inkscape:pageshadow="2"
     inkscape:window-width="1266"
     inkscape:window-height="856"
     id="namedview17"
     showgrid="false"
     inkscape:zoom="2.5798841"
     inkscape:cx="134.15562"
     inkscape:cy="140.12257"
     inkscape:window-x="62"
     inkscape:window-y="0"
     inkscape:window-maximized="0"
     inkscape:current-layer="Layer_1" /><g
     id="g6"
     style="fill:#000000;fill-opacity:1"><path
       fill="#FBFBFB"
       d="M53.292,87.635c0.888-2.997,2.109-5.661,5.661-5.661c3.663,0,4.995,2.775,5.771,5.661l21.421,75.142   c0.777,2.664-2.22,5.55-5.328,5.55c-3.441,0-5.217-2.886-5.994-5.55l-4.106-13.319H47.076l-4.218,13.319   c-0.777,2.664-2.553,5.55-5.994,5.55c-3.107,0-6.104-2.886-5.328-5.55L53.292,87.635z M59.063,108.28h-0.222l-8.657,30.079H67.61   L59.063,108.28z"
       id="path4"
       style="fill:#000000;fill-opacity:1" /></g><path
     inkscape:connector-curvature="0"
     style="fill:#000000;fill-opacity:1"
     id="path8"
     d="m 189.926,168.368 c -8.412,0 -13.235,-3.365 -16.825,-10.656 L 162.782,136.85 c -1.906,-3.814 -3.028,-7.403 -3.028,-11.778 0,-4.935 0.897,-7.963 3.141,-12.45 l 10.319,-20.751 c 3.813,-7.74 8.637,-10.768 17.274,-10.768 h 19.068 c 2.468,0 5.608,1.346 5.608,5.608 0,4.038 -3.029,5.608 -5.608,5.608 h -18.732 c -4.823,0 -5.608,0.449 -7.739,4.711 l -9.759,19.517 c -1.458,3.028 -2.355,5.047 -2.355,8.524 0,3.141 1.01,5.048 2.355,7.74 l 9.534,19.404 c 2.243,4.599 3.365,4.936 8.413,4.936 h 18.283 c 2.468,0 5.608,1.346 5.608,5.608 0,4.038 -3.029,5.608 -5.608,5.608 h -19.63 z" /><g
     id="g14"
     style="fill:#000000;fill-opacity:1"><path
       fill="#FBFBFB"
       d="M148.737,125.099L134.2,141.757v-12.43H92.157v-8.421H134.2v-12.43L148.737,125.099z"
       id="path12"
       style="fill:#000000;fill-opacity:1" /></g></svg>